<?xml version="1.0" encoding="UTF-8" standalone="no"?>
<!-- Generator: Adobe Illustrator 15.0.2, SVG Export Plug-In . SVG Version: 6.00 Build 0)  -->

<svg
   xmlns:dc="http://purl.org/dc/elements/1.1/"
   xmlns:cc="http://creativecommons.org/ns#"
   xmlns:rdf="http://www.w3.org/1999/02/22-rdf-syntax-ns#"
   xmlns:svg="http://www.w3.org/2000/svg"
   xmlns="http://www.w3.org/2000/svg"
   xmlns:sodipodi="http://sodipodi.sourceforge.net/DTD/sodipodi-0.dtd"
   xmlns:inkscape="http://www.inkscape.org/namespaces/inkscape"
   version="1.1"
   id="svg6481"
   sodipodi:version="0.32"
   inkscape:version="0.92.1 r15371"
   sodipodi:docname="tv.svg"
   inkscape:output_extension="org.inkscape.output.svg.inkscape"
   x="0px"
   y="0px"
   width="460.79999"
   height="497.06775"
   viewBox="132.929 333.343 432 466.001"
   enable-background="new 132.929 333.343 432 466.001"
   xml:space="preserve"><metadata
     id="metadata121"><rdf:RDF><cc:Work
         rdf:about=""><dc:format>image/svg+xml</dc:format><dc:type
           rdf:resource="http://purl.org/dc/dcmitype/StillImage" /><dc:title></dc:title></cc:Work></rdf:RDF></metadata><defs
     id="defs7"><inkscape:perspective
       id="perspective6489"
       inkscape:persp3d-origin="372.04725 : 350.78738 : 1"
       sodipodi:type="inkscape:persp3d"
       inkscape:vp_x="0 : 526.18108 : 1"
       inkscape:vp_y="0 : 999.99998 : 0"
       inkscape:vp_z="744.0945 : 526.18108 : 1" /><inkscape:perspective
       id="perspective6685"
       inkscape:persp3d-origin="372.04725 : 350.78738 : 1"
       sodipodi:type="inkscape:persp3d"
       inkscape:vp_x="0 : 526.18108 : 1"
       inkscape:vp_y="0 : 999.99998 : 0"
       inkscape:vp_z="744.0945 : 526.18108 : 1" /><inkscape:perspective
       id="perspective6766"
       inkscape:persp3d-origin="372.04725 : 350.78738 : 1"
       sodipodi:type="inkscape:persp3d"
       inkscape:vp_x="0 : 526.18108 : 1"
       inkscape:vp_y="0 : 999.99998 : 0"
       inkscape:vp_z="744.0945 : 526.18108 : 1" /><inkscape:perspective
       id="perspective7068"
       inkscape:persp3d-origin="372.04725 : 350.78738 : 1"
       sodipodi:type="inkscape:persp3d"
       inkscape:vp_x="0 : 526.18108 : 1"
       inkscape:vp_y="0 : 999.99998 : 0"
       inkscape:vp_z="744.0945 : 526.18108 : 1" /><inkscape:perspective
       id="perspective9795"
       inkscape:persp3d-origin="49.571421 : 30.574 : 1"
       sodipodi:type="inkscape:persp3d"
       inkscape:vp_x="0 : 45.860999 : 1"
       inkscape:vp_y="0 : 999.99998 : 0"
       inkscape:vp_z="99.142841 : 45.860999 : 1" /></defs><sodipodi:namedview
     id="base"
     pagecolor="#ffffff"
     bordercolor="#666666"
     borderopacity="1.0"
     inkscape:zoom="0.5"
     inkscape:cx="-102.43204"
     inkscape:cy="382.68848"
     showgrid="false"
     showguides="true"
     inkscape:window-y="0"
     inkscape:guide-bbox="true"
     inkscape:pageshadow="2"
     inkscape:pageopacity="0.0"
     inkscape:window-width="1272"
     inkscape:current-layer="layer1"
     inkscape:document-units="px"
     inkscape:window-height="944"
     inkscape:window-x="0"
     inkscape:window-maximized="0" /><g
     id="layer1"
     inkscape:label="Capa 1"
     inkscape:groupmode="layer"><g
       id="flowRoot9258" /><g
       id="g10751"
       transform="matrix(0.94357639,0,0,1,18.750334,-2.1883227e-7)"><path
         d="M 544.757,501.814 H 153.1 c -11.14,0 -20.171,9.033 -20.171,20.18 v 243.263 c 0,11.146 9.031,20.18 20.171,20.18 h 391.657 c 11.142,0 20.172,-9.033 20.172,-20.18 V 521.994 c 0,-11.146 -9.033,-20.18 -20.172,-20.18 z M 446.89,731.585 c 0,11.298 -9.154,20.455 -20.447,20.455 h -242.97 c -11.293,0 -20.448,-9.157 -20.448,-20.455 V 551.178 c 0,-11.298 9.155,-20.457 20.448,-20.457 h 242.97 c 11.293,0 20.447,9.159 20.447,20.457 z"
         id="path11"
         inkscape:connector-curvature="0" /><path
         id="rect7078"
         d="m 482.996,672.7 h 53.547 c 4.539,0 8.22,3.681 8.22,8.222 v 67.812 c 0,4.541 -3.681,8.222 -8.22,8.222 h -53.547 c -4.54,0 -8.22,-3.681 -8.22,-8.222 v -67.812 c 0,-4.542 3.68,-8.222 8.22,-8.222 z"
         inkscape:connector-curvature="0"
         style="fill:#8d8d8d" /><path
         id="path7084"
         d="m 480.425,333.343 c -5.788,0 -10.495,4.709 -10.495,10.5 0,1.53 0.292,2.947 0.881,4.259 L 365.564,459.338 c -2.222,-0.106 -4.484,-0.221 -6.752,-0.221 -11.894,0 -23.178,1.543 -33.468,4.258 L 215.403,390.1 c 0.222,-0.848 0.367,-1.726 0.367,-2.644 0,-5.79 -4.708,-10.5 -10.495,-10.5 -5.787,0 -10.496,4.709 -10.496,10.5 0,5.791 4.708,10.5 10.496,10.5 2.304,0 4.434,-0.794 6.165,-2.056 l 105.172,70.119 c -20.16,7.096 -35.203,19.101 -40.808,33.407 H 441.82 c -7.851,-20.039 -34.201,-35.542 -67.229,-39.354 L 475.728,353.167 c 1.409,0.707 3.013,1.102 4.695,1.102 5.787,0 10.422,-4.636 10.422,-10.426 10e-4,-5.788 -4.633,-10.5 -10.42,-10.5 z"
         inkscape:connector-curvature="0" /><linearGradient
         id="rect7624_1_"
         gradientUnits="userSpaceOnUse"
         x1="683.45898"
         y1="758.86432"
         x2="705.19452"
         y2="759.36407"
         gradientTransform="matrix(2.2245,0,0,2.2245,-1383.1882,-1047.9364)"><stop
           offset="0"
           style="stop-color:#2E3436"
           id="stop15" /><stop
           offset="1"
           style="stop-color:#2E3436;stop-opacity:0"
           id="stop17" /></linearGradient><path
         id="rect7624"
         sodipodi:nodetypes="ccccccccc"
         d="m 183.364,530.616 h 4.706 c 11.329,0 20.448,9.124 20.448,20.455 v 180.406 c 0,11.334 -9.12,20.457 -20.448,20.457 h -4.706 c -11.328,0 -20.448,-9.123 -20.448,-20.457 V 551.071 c 0.001,-11.331 9.121,-20.455 20.448,-20.455 z"
         inkscape:connector-curvature="0"
         style="fill:url(#rect7624_1_)" /><linearGradient
         id="path7637_1_"
         gradientUnits="userSpaceOnUse"
         x1="802.01758"
         y1="759.90631"
         x2="788.53339"
         y2="759.40637"
         gradientTransform="matrix(2.2245,0,0,2.2245,-1324.4929,-1047.9364)"><stop
           offset="0"
           style="stop-color:#2E3436"
           id="stop21" /><stop
           offset="1"
           style="stop-color:#2E3436;stop-opacity:0"
           id="stop23" /></linearGradient><path
         id="path7637"
         sodipodi:nodetypes="ccccccccc"
         d="m 426.493,530.502 h -4.705 c -11.329,0 -20.448,9.124 -20.448,20.457 v 180.407 c 0,11.333 9.119,20.455 20.448,20.455 h 4.705 c 11.328,0 20.449,-9.122 20.449,-20.455 V 550.959 c 0,-11.333 -9.121,-20.457 -20.449,-20.457 z"
         inkscape:connector-curvature="0"
         style="fill:url(#path7637_1_)" /><linearGradient
         id="path7641_1_"
         gradientUnits="userSpaceOnUse"
         x1="733.00293"
         y1="701.91107"
         x2="733.50427"
         y2="720.45618"
         gradientTransform="matrix(2.2245,0,0,2.2245,-1326.7156,-1049.0477)"><stop
           offset="0"
           style="stop-color:#2E3436"
           id="stop27" /><stop
           offset="1"
           style="stop-color:#2E3436;stop-opacity:0"
           id="stop29" /></linearGradient><path
         id="path7641"
         sodipodi:nodetypes="ccccccccc"
         d="m 446.89,550.948 v 4.709 c 0,11.333 -9.313,20.457 -20.88,20.457 H 183.902 c -11.567,0 -20.879,-9.124 -20.879,-20.457 v -4.709 c 0,-11.333 9.312,-20.455 20.879,-20.455 H 426.01 c 11.567,0 20.88,9.122 20.88,20.455 z"
         inkscape:connector-curvature="0"
         style="fill:url(#path7641_1_)" /><linearGradient
         id="path7645_1_"
         gradientUnits="userSpaceOnUse"
         x1="731.51459"
         y1="826.29102"
         x2="732.51569"
         y2="798.75922"
         gradientTransform="matrix(2.2245,0,0,2.2245,-1324.4929,-1047.9364)"><stop
           offset="0"
           style="stop-color:#2E3436"
           id="stop33" /><stop
           offset="1"
           style="stop-color:#2E3436;stop-opacity:0"
           id="stop35" /></linearGradient><path
         id="path7645"
         sodipodi:nodetypes="ccccccccc"
         d="m 447.043,731.49 v -4.709 c 0,-11.333 -9.196,-20.455 -20.618,-20.455 h -242.89 c -11.422,0 -20.618,9.122 -20.618,20.455 v 4.709 c 0,11.333 9.196,20.455 20.618,20.455 h 242.89 c 11.422,0 20.618,-9.122 20.618,-20.455 z"
         inkscape:connector-curvature="0"
         style="fill:url(#path7645_1_)" /><path
         id="rect7683"
         d="m 519.078,615.941 v 0 c 1.679,1.526 1.803,4.128 0.273,5.808 l -16.59,18.253 c -1.525,1.679 -4.127,1.802 -5.806,0.275 v 0 c -1.68,-1.527 -1.803,-4.13 -0.276,-5.81 l 16.592,-18.252 c 1.528,-1.678 4.125,-1.803 5.807,-0.274 z"
         inkscape:connector-curvature="0" /><path
         id="path9192"
         d="M 474.896,677.328 H 544.23"
         inkscape:connector-curvature="0"
         style="fill:none;stroke:#000000;stroke-width:2.34980011" /><path
         id="path9194"
         d="M 474.896,752.505 H 544.23"
         inkscape:connector-curvature="0"
         style="fill:none;stroke:#000000;stroke-width:2.34980011" /><path
         id="path9198"
         d="M 474.896,683.591 H 544.23"
         inkscape:connector-curvature="0"
         style="fill:none;stroke:#000000;stroke-width:2.34980011" /><path
         id="path9200"
         d="M 474.896,689.856 H 544.23"
         inkscape:connector-curvature="0"
         style="fill:none;stroke:#000000;stroke-width:2.34980011" /><path
         id="path9202"
         d="M 474.896,696.122 H 544.23"
         inkscape:connector-curvature="0"
         style="fill:none;stroke:#000000;stroke-width:2.34980011" /><path
         id="path9204"
         d="M 474.896,702.386 H 544.23"
         inkscape:connector-curvature="0"
         style="fill:none;stroke:#000000;stroke-width:2.34980011" /><path
         id="path9206"
         d="M 474.896,721.182 H 544.23"
         inkscape:connector-curvature="0"
         style="fill:none;stroke:#000000;stroke-width:2.34980011" /><path
         id="path9208"
         d="M 474.896,733.709 H 544.23"
         inkscape:connector-curvature="0"
         style="fill:none;stroke:#000000;stroke-width:2.34980011" /><path
         id="path9210"
         d="M 474.896,739.975 H 544.23"
         inkscape:connector-curvature="0"
         style="fill:none;stroke:#000000;stroke-width:2.34980011" /><path
         id="path9212"
         d="M 474.896,708.652 H 544.23"
         inkscape:connector-curvature="0"
         style="fill:none;stroke:#000000;stroke-width:2.34980011" /><path
         id="path9216"
         d="M 474.896,746.24 H 544.23"
         inkscape:connector-curvature="0"
         style="fill:none;stroke:#000000;stroke-width:2.34980011" /><path
         id="path9218"
         d="M 474.896,714.917 H 544.23"
         inkscape:connector-curvature="0"
         style="fill:none;stroke:#000000;stroke-width:2.34980011" /><path
         id="path9220"
         d="M 474.896,727.445 H 544.23"
         inkscape:connector-curvature="0"
         style="fill:none;stroke:#000000;stroke-width:2.34980011" /><path
         id="flowRoot9266"
         d="m 509.1,769.757 h -2.524 v -1.764 h -1.292 v 6.539 c 0,1.395 0.763,2.276 2.085,2.276 h 1.731 v -1.233 h -1.556 c -0.661,0 -0.97,-0.221 -0.97,-0.883 v -3.701 h 2.524 l 0.002,-1.234 m 0.645,3.526 c 0,2.174 1.705,3.674 3.658,3.674 1.952,0 3.655,-1.5 3.655,-3.674 0,-2.174 -1.703,-3.674 -3.655,-3.674 -1.953,0 -3.658,1.5 -3.658,3.674 m 1.352,0 c 0,-1.439 0.97,-2.439 2.308,-2.439 1.336,0 2.305,1 2.305,2.439 0,1.438 -0.969,2.438 -2.305,2.438 -1.34,10e-4 -2.308,-0.999 -2.308,-2.438 m 8.453,3.527 v -3.202 h 1.47 c 0.676,0 1.146,0.396 1.146,1.276 v 1.926 h 1.292 v -2.071 c 0,-1.25 -0.571,-1.867 -1.615,-2.072 v -0.029 c 0.397,-0.104 0.823,-0.809 1.104,-1.293 l 0.925,-1.586 h -1.469 l -1.22,2.086 c -0.189,0.322 -0.543,0.529 -1.087,0.529 h -0.544 v -5.847 h -1.292 v 10.283 h 1.29 m 4.882,-3.527 c 0,2.174 1.703,3.674 3.656,3.674 1.953,0 3.656,-1.5 3.656,-3.674 0,-2.174 -1.703,-3.674 -3.656,-3.674 -1.953,0 -3.656,1.5 -3.656,3.674 m 1.35,0 c 0,-1.439 0.97,-2.439 2.306,-2.439 1.336,0 2.307,1 2.307,2.439 0,1.438 -0.971,2.438 -2.307,2.438 -1.336,0 -2.306,-0.999 -2.306,-2.438 m 8.352,3.527 v -4.114 c 0,-1.088 0.792,-1.853 1.718,-1.853 0.926,0 1.719,0.765 1.719,1.853 v 4.114 h 1.292 v -4.114 c 0,-1.853 -1.292,-3.086 -3.011,-3.086 -1.718,0 -3.011,1.233 -3.011,3.086 v 4.114 h 1.293"
         inkscape:connector-curvature="0"
         style="fill:#eeeeec" /><path
         id="flowRoot9275"
         d="m 505.359,531.221 v 8.405 h 1.062 v -3.374 c 0,-0.887 0.639,-1.5 1.405,-1.5 0.756,0 1.406,0.324 1.406,1.5 v 3.374 h 1.062 v -3.374 c 0,-1.943 -1.073,-2.5 -2.405,-2.5 -0.61,0 -1.144,0.266 -1.468,0.625 v -3.156 z m 8.12,0 c -1.187,0 -2.028,0.787 -2.028,2.095 v 6.312 h 1.062 v -4.749 h 1.719 v -1.031 h -1.719 v -0.563 c 0,-0.732 0.43,-1.063 1.124,-1.063 h 0.75 v -1 h -0.908 z m -14.117,2.625 1.999,5.313 c 0.191,0.516 0.438,0.594 0.812,0.594 0.374,0 0.62,-0.078 0.813,-0.594 l 2.029,-5.313 h -1.155 l -1.688,4.469 -1.655,-4.469 z"
         inkscape:connector-curvature="0"
         style="fill:#eeeeec" /><path
         id="path9449"
         d="m 505.796,594.248 -0.312,1.03 h 1.529 v 7.344 h 1.155 v -8.374 z"
         inkscape:connector-curvature="0"
         style="fill:#eeeeec" /><path
         id="path9470"
         d="m 481.748,604.893 -2.063,2.905 c -0.6,0.854 -1.094,1.51 -1.094,2.625 0,1.693 1.344,3 2.999,3 1.775,0 3.092,-1.438 3.092,-3 0,-1.69 -0.981,-2.981 -2.842,-3.031 l -0.656,0.97 c 1.344,-0.023 2.344,0.678 2.344,2.094 0,1.057 -0.874,1.906 -1.905,1.906 -1.008,0 -1.874,-0.849 -1.874,-1.845 0,-0.803 0.301,-1.282 0.78,-1.969 l 2.593,-3.655 z"
         inkscape:connector-curvature="0"
         style="fill:#eeeeec" /><path
         id="path9468"
         d="m 480.011,640.599 v 4.28 h 2.093 c 1.331,0 1.844,0.566 1.844,1.563 0,0.864 -0.52,1.5 -1.563,1.5 h -2.748 v 1.03 h 3.062 c 1.521,0 2.499,-1.239 2.499,-2.5 0,-1.752 -1.22,-2.655 -3.029,-2.655 h -1 v -2.188 h 3.217 v -1.03 z"
         inkscape:connector-curvature="0"
         style="fill:#eeeeec" /><path
         id="path9466"
         d="m 504.709,653.326 v 1.031 h 3.592 l -2.624,2.438 v 0.844 h 1.313 c 1.26,0 1.968,0.609 1.968,1.438 0,0.877 -0.583,1.594 -1.687,1.594 h -2.78 v 1.031 h 3.092 c 1.416,0 2.499,-1.049 2.499,-2.656 0,-1.512 -1.126,-2.445 -2.686,-2.469 l 1.123,-0.969 c 0.54,-0.48 0.999,-0.775 0.999,-1.375 0,-0.611 -0.395,-0.906 -1.187,-0.906 z"
         inkscape:connector-curvature="0"
         style="fill:#eeeeec" /><path
         id="path9464"
         d="m 534.533,641.15 c -0.012,0 -0.046,0.041 -0.094,0.124 l -1.063,1.78 v 3.625 h -2.529 l 3.029,-5.375 h -1.249 l -2.687,4.875 c -0.204,0.373 -0.375,0.601 -0.375,0.875 0,0.435 0.309,0.688 0.813,0.688 h 2.998 v 1.938 h 1.156 v -1.938 h 1.249 v -1.063 h -1.249 v -5.375 c 10e-4,-0.129 0.014,-0.154 10e-4,-0.154 z"
         inkscape:connector-curvature="0"
         style="fill:#eeeeec" /><path
         id="path9451"
         d="m 533.184,604.03 c -1.559,0 -2.967,1.031 -2.967,2.687 0,1.213 0.61,2.08 1.749,2.5 l 0.968,-0.78 c -0.814,-0.084 -1.562,-0.697 -1.562,-1.563 0,-1.054 0.607,-1.78 1.687,-1.78 0.937,0 1.656,0.646 1.656,1.594 0,0.709 -0.45,1.297 -0.906,1.655 l -2.967,2.313 c -0.527,0.42 -0.75,0.588 -0.75,1.031 0,0.553 0.394,0.875 1.124,0.875 h 4.623 v -1.031 h -4.217 V 611.5 l 2.343,-1.844 c 1.14,-0.84 1.905,-1.588 1.905,-2.969 0,-1.487 -1.198,-2.657 -2.686,-2.657 z"
         inkscape:connector-curvature="0"
         style="fill:#eeeeec" /><path
         id="path9480"
         d="m 481.621,544.72 v 8.405 h 1.062 v -8.405 z m 4.528,0 c -1.188,0 -2.029,0.787 -2.029,2.094 v 6.313 h 1.062 v -4.749 h 1.719 v -1.031 h -1.719 v -0.563 c 0,-0.732 0.43,-1.063 1.124,-1.063 h 0.75 v -1 h -0.907 z m -13.399,2.625 v 3.938 c 0,1.08 0.887,1.969 2.063,1.969 0.647,0 1.304,-0.26 1.687,-0.813 0.384,0.553 1.008,0.813 1.656,0.813 1.175,0 2.062,-0.889 2.062,-1.969 v -3.938 h -1.031 v 3.688 c 0,0.731 -0.406,1.188 -1.029,1.188 -0.685,0 -1.156,-0.358 -1.156,-1.344 v -3.53 h -1.03 v 3.53 c 0,0.984 -0.44,1.344 -1.125,1.344 -0.623,0 -1.029,-0.455 -1.029,-1.188 v -3.688 z"
         inkscape:connector-curvature="0"
         style="fill:#eeeeec" /><path
         id="path9484"
         d="m 533.501,543.72 v 8.405 h 1.063 v -3.374 c 0,-0.887 0.638,-1.5 1.404,-1.5 0.755,0 1.405,0.324 1.405,1.5 v 3.374 h 1.063 v -3.374 c 0,-1.943 -1.074,-2.5 -2.405,-2.5 -0.612,0 -1.146,0.266 -1.468,0.625 v -3.156 z m 8.121,0 c -1.188,0 -2.03,0.787 -2.03,2.094 v 6.313 h 1.063 v -4.749 h 1.719 v -1.031 h -1.719 v -0.563 c 0,-0.732 0.429,-1.063 1.125,-1.063 h 0.75 v -1 h -0.908 z m -14.118,2.625 v 3.374 c 0,1.513 1.064,2.531 2.468,2.531 1.404,0 2.469,-1.021 2.469,-2.531 v -3.374 h -1.063 v 3.374 c 0,0.89 -0.648,1.5 -1.405,1.5 -0.756,0 -1.404,-0.61 -1.404,-1.5 v -3.374 z"
         inkscape:connector-curvature="0"
         style="fill:#eeeeec" /><path
         id="rect9823"
         sodipodi:nodetypes="ccccc"
         d="m 167.091,780.661 h 20.592 l -1.373,17.683 h -17.846 z"
         inkscape:connector-curvature="0" /><path
         id="path9826"
         sodipodi:nodetypes="ccccc"
         d="m 505.921,781.661 h 20.592 l -1.373,17.683 h -17.846 z"
         inkscape:connector-curvature="0" /><linearGradient
         id="rect10130_1_"
         gradientUnits="userSpaceOnUse"
         x1="1192.2363"
         y1="406.1348"
         x2="1202.2394"
         y2="548.11652"
         gradientTransform="matrix(0.9177,0,0,0.9177,-794.7938,176.5916)"><stop
           offset="0"
           style="stop-color:#EEEEEC"
           id="stop65" /><stop
           offset="1"
           style="stop-color:#EEEEEC;stop-opacity:0"
           id="stop67" /></linearGradient><path
         id="rect10130"
         sodipodi:nodetypes="cccccssccc"
         enable-background="new    "
         d="m 191.784,538.72 h 222.979 c 10.396,0 18.768,8.375 18.768,18.774 v 95.821 c 0,10.401 -8.37,18.773 -18.768,18.773 0,0 5.082,-66.104 -114.24,-32.118 -58.995,16.804 -108.738,32.118 -108.738,32.118 -9.971,2.945 -18.766,-8.372 -18.766,-18.773 v -95.821 c -0.001,-10.399 8.369,-18.774 18.765,-18.774 z"
         inkscape:connector-curvature="0"
         style="opacity:0.5;fill:url(#rect10130_1_)" /><linearGradient
         id="path10659_1_"
         gradientUnits="userSpaceOnUse"
         x1="1059.9395"
         y1="446.38281"
         x2="1066.7502"
         y2="484.37311"
         gradientTransform="translate(-710.3203,19.9697)"><stop
           offset="0"
           style="stop-color:#EEEEEC"
           id="stop71" /><stop
           offset="1"
           style="stop-color:#EEEEEC;stop-opacity:0"
           id="stop73" /></linearGradient><path
         id="path10659"
         sodipodi:nodetypes="ccccc"
         enable-background="new    "
         d="m 354.188,462.844 c -27.937,0 -52.8,11.364 -68.777,28.997 0,0 45.671,-1.415 74.432,-9.191 18.16,-7.069 63.125,9.191 63.125,9.191 -15.982,-17.633 -40.844,-28.997 -68.78,-28.997 z"
         inkscape:connector-curvature="0"
         style="opacity:0.72890003;fill:url(#path10659_1_)" /><linearGradient
         id="path10669_1_"
         gradientUnits="userSpaceOnUse"
         x1="645.49512"
         y1="379.88281"
         x2="650.2962"
         y2="391.37909"
         gradientTransform="translate(-443.3203,-0.0303)"><stop
           offset="0"
           style="stop-color:#EEEEEC"
           id="stop77" /><stop
           offset="1"
           style="stop-color:#EEEEEC;stop-opacity:0"
           id="stop79" /></linearGradient><path
         id="path10669"
         sodipodi:nodetypes="ccssc"
         enable-background="new    "
         d="m 213.968,387.343 c 0,4.878 -3.815,-4.185 -8.942,-1.561 -5.001,0.75 -8.727,6.438 -8.727,1.561 0,-4.877 3.958,-8.838 8.834,-8.838 4.876,0 8.835,3.96 8.835,8.838 z"
         inkscape:connector-curvature="0"
         style="opacity:0.72890003;fill:url(#path10669_1_)" /><linearGradient
         id="path10680_1_"
         gradientUnits="userSpaceOnUse"
         x1="645.35742"
         y1="379.8848"
         x2="650.15851"
         y2="391.38101"
         gradientTransform="translate(-167.9023,-43.5176)"><stop
           offset="0"
           style="stop-color:#EEEEEC"
           id="stop83" /><stop
           offset="1"
           style="stop-color:#EEEEEC;stop-opacity:0"
           id="stop85" /></linearGradient><path
         id="path10680"
         sodipodi:nodetypes="ccssc"
         enable-background="new    "
         d="m 489.248,343.859 c 0,4.879 -3.815,-4.186 -8.942,-1.561 -5.001,0.75 -8.727,6.439 -8.727,1.561 0,-4.878 3.957,-8.838 8.834,-8.838 4.877,0 8.835,3.959 8.835,8.838 z"
         inkscape:connector-curvature="0"
         style="opacity:0.72890003;fill:url(#path10680_1_)" /><g
         id="g10699"
         transform="translate(-99.702056,85.206367)"><circle
           id="path10684"
           cx="420.72855"
           cy="833.15906"
           r="9.5964489"
           style="fill:#8d8d8d" /><linearGradient
           id="path10686_1_"
           gradientUnits="userSpaceOnUse"
           x1="1244.0272"
           y1="522.97632"
           x2="1250.9408"
           y2="546.98657"
           gradientTransform="translate(-642.7246,-0.0303)"><stop
             offset="0"
             style="stop-color:#CDCDCC"
             id="stop90" /><stop
             offset="1"
             style="stop-color:#CDCDCC;stop-opacity:0"
             id="stop92" /></linearGradient><path
           id="path10686"
           sodipodi:nodetypes="csssc"
           d="m 625.99,541.976 c 0,10.688 -2.606,-10.081 -19.661,-3.711 -10.232,3.819 -19.054,14.398 -19.054,3.711 0,-10.69 8.672,-19.366 19.356,-19.366 10.686,0 19.359,8.675 19.359,19.366 z"
           inkscape:connector-curvature="0"
           style="fill:url(#path10686_1_)" /><path
           id="rect10697"
           d="m 611.678,528.1 v 0 c 2.135,0.772 3.236,3.133 2.462,5.267 l -8.407,23.191 c -0.773,2.135 -3.132,3.237 -5.266,2.463 v 0 c -2.135,-0.773 -3.235,-3.132 -2.463,-5.268 l 8.408,-23.19 c 0.774,-2.135 3.131,-3.239 5.266,-2.463 z"
           inkscape:connector-curvature="0" /></g><circle
         id="path10706"
         cx="420.72855"
         cy="833.15906"
         r="9.5964489"
         style="fill:#8d8d8d" /><linearGradient
         id="path10708_1_"
         gradientUnits="userSpaceOnUse"
         x1="1044.623"
         y1="522.98138"
         x2="1051.5366"
         y2="546.99182"
         gradientTransform="translate(-543.0225,24.7188)"><stop
           offset="0"
           style="stop-color:#CDCDCC"
           id="stop99" /><stop
           offset="1"
           style="stop-color:#CDCDCC;stop-opacity:0"
           id="stop101" /></linearGradient><path
         id="path10708"
         sodipodi:nodetypes="csssc"
         d="m 526.288,566.728 c 0,10.69 -2.606,-10.078 -19.661,-3.711 -10.232,3.822 -19.054,14.401 -19.054,3.711 0,-10.688 8.672,-19.364 19.356,-19.364 10.686,-10e-4 19.359,8.676 19.359,19.364 z"
         inkscape:connector-curvature="0"
         style="fill:url(#path10708_1_)" /><path
         id="rect10710"
         d="m 506.37,551.868 v 0 c 2.27,0 4.108,1.84 4.108,4.111 v 24.67 c 0,2.271 -1.84,4.111 -4.108,4.111 v 0 c -2.271,0 -4.11,-1.841 -4.11,-4.111 v -24.67 c 0,-2.271 1.84,-4.111 4.11,-4.111 z"
         inkscape:connector-curvature="0" /><linearGradient
         id="rect10719_1_"
         gradientUnits="userSpaceOnUse"
         x1="1050.5312"
         y1="770.41309"
         x2="1077.547"
         y2="819.40289"
         gradientTransform="translate(-558.3203,-87.0303)"><stop
           offset="0"
           style="stop-color:#CECECC"
           id="stop106" /><stop
           offset="1"
           style="stop-color:#CECECC;stop-opacity:0"
           id="stop108" /></linearGradient><path
         id="rect10719"
         enable-background="new    "
         d="m 485.552,674.624 h 50.437 c 4.57,0 8.275,3.706 8.275,8.278 v 68.272 c 0,4.572 -3.705,8.278 -8.275,8.278 h -50.437 c -4.571,0 -8.275,-3.706 -8.275,-8.278 v -68.272 c -0.002,-4.572 3.703,-8.278 8.275,-8.278 z"
         inkscape:connector-curvature="0"
         style="opacity:0.72899996;fill:url(#rect10719_1_)" /><linearGradient
         id="rect10739_1_"
         gradientUnits="userSpaceOnUse"
         x1="-391.8027"
         y1="-1252.1548"
         x2="-367.78699"
         y2="-1222.1619"
         gradientTransform="rotate(180,77.97755,-246.45995)"><stop
           offset="0"
           style="stop-color:#2E2E2C"
           id="stop112" /><stop
           offset="1"
           style="stop-color:#888A85;stop-opacity:0"
           id="stop114" /></linearGradient><path
         id="rect10739"
         enable-background="new    "
         d="M 535.987,755.455 H 485.55 c -4.57,0 -8.275,-3.707 -8.275,-8.279 v -68.272 c 0,-4.571 3.705,-8.278 8.275,-8.278 h 50.437 c 4.57,0 8.275,3.707 8.275,8.278 v 68.272 c 0.002,4.572 -3.703,8.279 -8.275,8.279 z"
         inkscape:connector-curvature="0"
         style="opacity:0.80989996;fill:url(#rect10739_1_)" /></g></g></svg>